<svg width="21" height="25" viewBox="0 0 21 25" fill="none" xmlns="http://www.w3.org/2000/svg">
    <path d="M13.1074 25C12.345 25 11.7654 24.3149 11.8917 23.563L15.6775 1.02848C15.7772 0.434802 16.2912 -6.55651e-06 16.8932 -6.55651e-06V-6.55651e-06C17.6556 -6.55651e-06 18.2352 0.685094 18.1089 1.43695L14.323 23.9715C14.2233 24.5652 13.7094 25 13.1074 25V25ZM1.43724 18.0664C0.684279 18.0664 0.110855 17.3914 0.232596 16.6483V16.6483C0.329283 16.0582 0.839241 15.625 1.43724 15.625H18.0633C18.8162 15.625 19.3897 16.3 19.2679 17.0431V17.0431C19.1712 17.6332 18.6613 18.0664 18.0633 18.0664H1.43724ZM4.10736 25C3.34496 25 2.76536 24.3149 2.89167 23.563L6.67747 1.02848C6.77721 0.434802 7.29116 -6.55651e-06 7.89316 -6.55651e-06V-6.55651e-06C8.65556 -6.55651e-06 9.23516 0.685094 9.10885 1.43695L5.32305 23.9715C5.22331 24.5652 4.70936 25 4.10736 25V25ZM2.93724 9.37499C2.18428 9.37499 1.61085 8.69998 1.7326 7.95692V7.95692C1.82928 7.36679 2.33924 6.93359 2.93724 6.93359H19.5633C20.3162 6.93359 20.8897 7.60861 20.7679 8.35166V8.35166C20.6712 8.94179 20.1613 9.37499 19.5633 9.37499H2.93724Z" fill="#000000"/>
</svg>