<svg width="27" height="30" viewBox="0 0 27 27" fill="none" xmlns="http://www.w3.org/2000/svg">
    <path d="M23.5038 14.5157V21.5824C23.5038 23.6443 21.8323 25.3157 19.7704 25.3157H4.8371C2.77523 25.3157 1.10376 23.6443 1.10376 21.5824V6.64906C1.10376 4.5872 2.77523 2.91573 4.8371 2.91573H12.3038M17.6263 4.43948L22.5565 9.31573M24.0208 1.81621L25.1528 2.94819C26.1942 3.98959 26.1942 5.67803 25.1528 6.71943L13.275 18.5972C12.9823 18.8899 12.6254 19.1105 12.2327 19.2414L6.73996 21.0723C6.21879 21.246 5.72296 20.7502 5.89669 20.229L7.7276 14.7363C7.85851 14.3435 8.07907 13.9867 8.3718 13.6939L20.2496 1.8162C21.291 0.774806 22.9794 0.774808 24.0208 1.81621Z" stroke="#D9D9D9" stroke-width="1.6" stroke-linecap="round" stroke-linejoin="round" />
</svg>