<svg width="28" height="30" viewBox="0 0 28 8" fill="none" xmlns="http://www.w3.org/2000/svg">
    <path d="M16.9333 3.99991C16.9333 5.47259 15.7394 6.66657 14.2667 6.66657C12.7939 6.66657 11.6 5.47259 11.6 3.99991C11.6 2.52723 12.7939 1.33325 14.2667 1.33325C15.7394 1.33325 16.9333 2.52723 16.9333 3.99991Z" stroke="#D9D9D9" stroke-width="1.6" stroke-linecap="round" />
    <path d="M26.5333 3.99994C26.5333 5.47262 25.3394 6.6666 23.8667 6.6666C22.3939 6.6666 21.2 5.47262 21.2 3.99994C21.2 2.52727 22.3939 1.33328 23.8667 1.33328C25.3394 1.33328 26.5333 2.52727 26.5333 3.99994Z" stroke="#D9D9D9" stroke-width="1.6" stroke-linecap="round" />
    <path d="M6.80002 3.99994C6.80002 5.47262 5.60612 6.6666 4.13336 6.6666C2.6606 6.6666 1.46669 5.47262 1.46669 3.99994C1.46669 2.52727 2.6606 1.33328 4.13336 1.33328C5.60612 1.33328 6.80002 2.52727 6.80002 3.99994Z" stroke="#D9D9D9" stroke-width="1.6" stroke-linecap="round" />
</svg>